<?xml version="1.0" encoding="utf-8"?>
<!-- Generator: Adobe Illustrator 17.1.0, SVG Export Plug-In . SVG Version: 6.00 Build 0)  -->
<!DOCTYPE svg PUBLIC "-//W3C//DTD SVG 1.1//EN" "http://www.w3.org/Graphics/SVG/1.1/DTD/svg11.dtd">
<svg version="1.1" id="Layer_1" xmlns="http://www.w3.org/2000/svg" xmlns:xlink="http://www.w3.org/1999/xlink" x="0px" y="0px"
	 viewBox="146.594 2.094 53 53" enable-background="new 146.594 2.094 53 53" xml:space="preserve">
<g>
	<path fill="#1A1A1A" d="M173.094,55.094c-14.612,0-26.5-11.888-26.5-26.5s11.888-26.5,26.5-26.5s26.5,11.888,26.5,26.5
		S187.707,55.094,173.094,55.094z M173.094,5.094c-12.958,0-23.5,10.542-23.5,23.5s10.542,23.5,23.5,23.5s23.5-10.542,23.5-23.5
		S186.052,5.094,173.094,5.094z"/>
	<path fill="#1A1A1A" d="M187.069,30.094h-29.27c-0.829,0-1.5-0.671-1.5-1.5s0.671-1.5,1.5-1.5h29.27c0.829,0,1.5,0.671,1.5,1.5
		S187.898,30.094,187.069,30.094z"/>
	<path fill="#1A1A1A" d="M174.57,41.818c-0.4,0-0.799-0.159-1.095-0.474c-0.566-0.604-0.536-1.554,0.068-2.121l11.322-10.619
		l-11.311-10.397c-0.61-0.561-0.65-1.51-0.089-2.12s1.509-0.649,2.12-0.089l12.5,11.491c0.307,0.283,0.483,0.68,0.485,1.097
		c0.002,0.417-0.169,0.816-0.474,1.102l-12.5,11.724C175.306,41.684,174.938,41.818,174.57,41.818z"/>
</g>
</svg>
