<?xml version="1.0" encoding="utf-8"?>
<!-- Generator: Adobe Illustrator 17.1.0, SVG Export Plug-In . SVG Version: 6.00 Build 0)  -->
<!DOCTYPE svg PUBLIC "-//W3C//DTD SVG 1.1//EN" "http://www.w3.org/Graphics/SVG/1.1/DTD/svg11.dtd">
<svg version="1.1" id="Layer_1" xmlns="http://www.w3.org/2000/svg" xmlns:xlink="http://www.w3.org/1999/xlink" x="0px" y="0px"
	 viewBox="144.5 0 100 100" enable-background="new 144.5 0 100 100" xml:space="preserve">
<g>
	<rect x="144.5" fill="#FFF200" width="100" height="100"/>
	<g>
		<path fill="#1A1A1A" d="M223.5,73.5h-58c-0.829,0-1.5-0.672-1.5-1.5V50c0-0.829,0.671-1.5,1.5-1.5h16.391
			c0.829,0,1.5,0.671,1.5,1.5s-0.671,1.5-1.5,1.5H167v19h55v-19h-8.587c-0.828,0-1.5-0.671-1.5-1.5s0.672-1.5,1.5-1.5H223.5
			c0.828,0,1.5,0.671,1.5,1.5v22C225,72.828,224.328,73.5,223.5,73.5z"/>
		<path fill="#1A1A1A" d="M186.5,63.5c-0.364,0-0.723-0.132-1.004-0.385c-0.443-0.399-0.608-1.023-0.419-1.589l4-12
			c0.073-0.221,0.198-0.422,0.362-0.586l22-22c0.586-0.586,1.535-0.586,2.121,0l7,7c0.586,0.585,0.586,1.536,0,2.121l-22,22
			c-0.127,0.127-0.276,0.23-0.44,0.305l-11,5C186.922,63.456,186.71,63.5,186.5,63.5z M191.811,50.81l-2.8,8.401l7.621-3.464
			L217.379,35l-4.879-4.879L191.811,50.81z"/>
		
			<rect x="207.05" y="34" transform="matrix(0.7071 0.7071 -0.7071 0.7071 87.1957 -139.5089)" fill="#1A1A1A" width="9.899" height="3"/>
		
			<rect x="189.05" y="52" transform="matrix(0.7071 0.7071 -0.7071 0.7071 94.6515 -121.5089)" fill="#1A1A1A" width="9.899" height="3"/>
	</g>
</g>
</svg>
