<?xml version="1.0" encoding="utf-8"?>
<!-- Generator: Adobe Illustrator 17.1.0, SVG Export Plug-In . SVG Version: 6.00 Build 0)  -->
<!DOCTYPE svg PUBLIC "-//W3C//DTD SVG 1.1//EN" "http://www.w3.org/Graphics/SVG/1.1/DTD/svg11.dtd">
<svg version="1.1" id="Layer_1" xmlns="http://www.w3.org/2000/svg" xmlns:xlink="http://www.w3.org/1999/xlink" x="0px" y="0px"
	 viewBox="144.5 0 100 100" enable-background="new 144.5 0 100 100" xml:space="preserve">
<g>
	<rect x="144.5" fill="#EDD2C9" width="100" height="100"/>
	<path d="M194.5,76.001c-6.677,0-12.955-2.601-17.677-7.323s-7.323-11-7.323-17.677c0-6.678,2.601-12.956,7.322-17.678
		c4.722-4.721,11-7.322,17.678-7.322s12.956,2.601,17.678,7.322c4.722,4.722,7.322,11,7.322,17.678c0,6.677-2.6,12.955-7.322,17.677
		C207.456,73.4,201.178,76.001,194.5,76.001z M181.346,69.172c3.854,2.802,8.385,4.278,13.154,4.278
		c3.039,0,5.988-0.598,8.764-1.777l0.431-0.183l-0.078-0.461c-0.317-1.88-1.595-8.642-4.7-16.713l-0.207-0.537
		c0,0-0.576,0.202-0.593,0.207c-0.032,0.01-0.064,0.021-0.097,0.033c-12.963,4.518-17.308,13.569-17.487,13.952l-0.195,0.418
		l-0.012,0.015c0.227,0.18,0.377,0.294,0.383,0.298l0.633,0.479L181.346,69.172z M207.008,52.573c-1.589,0-3.151,0.121-4.643,0.36
		l-0.709,0.113l0.245,0.674c2.856,7.847,4.022,14.294,4.227,15.507l0.153,0.908l0.763-0.515c5.141-3.472,8.647-8.96,9.619-15.058
		l0.08-0.501l-0.483-0.156C215.838,53.768,211.99,52.573,207.008,52.573z M172.069,50.292c-0.002,0.064-0.004,0.128-0.006,0.193
		c-0.006,0.167-0.011,0.339-0.011,0.516c0,5.551,2.045,10.881,5.757,15.008l0.517,0.524c0.009,0.01,0.427-0.646,0.427-0.646
		c0.015-0.026,1.51-2.648,4.404-5.692c2.658-2.796,7.079-6.534,13.038-8.462c0.272-0.086,0.557-0.172,0.842-0.254l0.654-0.187
		l-0.275-0.622c-0.52-1.177-1.121-2.437-1.788-3.744l-0.224-0.44l-0.473,0.142c-9.601,2.873-18.902,3.097-21.523,3.097
		c-0.43,0-0.684-0.006-0.731-0.007l-0.591-0.017L172.069,50.292z M206.16,50.361c5.295,0,9.591,0.897,10.064,1l0.725,0.157
		l-0.007-0.742c-0.026-2.608-0.494-5.159-1.392-7.581c-0.869-2.345-2.119-4.517-3.714-6.454l-0.502-0.609l-0.445,0.652
		c-0.034,0.049-3.51,5.005-11.911,8.436l-0.587,0.24l0.279,0.57c0.524,1.07,1.009,2.127,1.44,3.141
		c0.143,0.332,0.291,0.688,0.468,1.121l0.172,0.42l0.451-0.057C202.753,50.46,204.421,50.361,206.16,50.361z M184.922,30.697
		c-3.094,1.462-5.859,3.654-7.996,6.34c-2.164,2.72-3.684,5.948-4.394,9.336l-0.147,0.701l0.716,0.013
		c0.059,0.001,0.207,0.003,0.436,0.003c2.293,0,10.506-0.194,19.906-2.691l0.74-0.196l-0.375-0.667
		c-3.708-6.591-7.711-12.054-8.155-12.655l-0.289-0.392L184.922,30.697z M188.545,29.167c0.197,0.262,0.482,0.647,0.482,0.647
		c0.448,0.594,4.346,6.13,7.983,12.809l0.274,0.548l0.464-0.143c2.4-0.9,5.893-2.511,8.948-5.171c1.9-1.654,2.709-2.897,2.743-2.949
		l0.273-0.424l-0.383-0.334c-4.099-3.612-9.365-5.6-14.827-5.6C192.731,28.55,191.186,28.527,188.545,29.167z"/>
</g>
</svg>
