<?xml version="1.0" encoding="utf-8"?>
<!-- Generator: Adobe Illustrator 17.1.0, SVG Export Plug-In . SVG Version: 6.00 Build 0)  -->
<!DOCTYPE svg PUBLIC "-//W3C//DTD SVG 1.1//EN" "http://www.w3.org/Graphics/SVG/1.1/DTD/svg11.dtd">
<svg version="1.1" id="Layer_1" xmlns="http://www.w3.org/2000/svg" xmlns:xlink="http://www.w3.org/1999/xlink" x="0px" y="0px"
	 viewBox="144.5 0 100 100" enable-background="new 144.5 0 100 100" xml:space="preserve">
<g>
	<rect x="144.5" fill="#DD3D55" width="100" height="100"/>
	<g>
		<g>
			<path fill="#1A1A1A" d="M210.872,67.066c1.518-3.21,2.316-16.834,2.316-20.537c0-12.036-8.383-21.829-18.687-21.829
				c-10.307,0-18.69,9.793-18.69,21.829c0,3.699,0.799,17.322,2.316,20.537c0.309,1.528-1.371,2.832-1.687,2.24
				c-2.056-3.834-3.144-18.256-3.144-22.777c0-13.424,9.513-24.344,21.205-24.344c11.691,0,21.202,10.92,21.202,24.344
				c0,4.527-1.088,18.948-3.144,22.777C212.333,69.729,210.872,67.066,210.872,67.066z"/>
		</g>
		<g>
			<path fill="#1A1A1A" d="M194.501,64.137c-0.427,0-0.847-0.025-1.27-0.076c-6.651-0.735-11.662-6.998-13.747-17.182
				c-0.192-0.98-0.312-1.967-0.376-3.117c-0.02-0.346,0.103-0.683,0.341-0.936c0.238-0.251,0.567-0.393,0.914-0.393h6.897
				l1.13-8.088c0.086-0.621,0.619-1.083,1.245-1.083c0.626,0,1.16,0.462,1.245,1.083l1.13,8.088h1.761l0.378-3.794
				c0.064-0.642,0.604-1.133,1.25-1.133l0,0c0.646,0,1.186,0.489,1.25,1.133l0.383,3.794h11.606c0.346,0,0.676,0.143,0.914,0.393
				c0.238,0.253,0.361,0.59,0.341,0.936c-0.064,1.127-0.189,2.144-0.381,3.11c-1.132,5.512-3.068,9.825-5.753,12.827
				c-0.01,0.012-0.02,0.024-0.032,0.037c-0.196,0.218-0.403,0.422-0.604,0.624l-0.231,0.228c-0.435,0.415-0.712,0.638-0.992,0.862
				l-0.229,0.189c-0.295,0.229-0.597,0.427-0.904,0.621c-0.008,0.005-0.204,0.14-0.212,0.145c-0.285,0.179-0.594,0.336-0.911,0.493
				c-0.027,0.013-0.277,0.145-0.304,0.155c-0.236,0.115-0.548,0.235-0.867,0.351l-0.248,0.106c-0.238,0.081-0.462,0.14-0.688,0.201
				l-0.277,0.074c-0.027,0.01-0.233,0.066-0.263,0.071c-0.271,0.061-0.535,0.101-0.811,0.14l-0.433,0.066
				c-0.334,0.037-0.671,0.049-1.012,0.059C194.735,64.122,194.511,64.137,194.501,64.137L194.501,64.137z M195.474,61.563
				l0.361-0.057c0.212-0.029,0.412-0.059,0.614-0.103l0.27-0.076c0.349-0.093,0.518-0.137,0.686-0.194
				c0.467-0.182,0.695-0.268,0.918-0.376c0.447-0.231,0.683-0.349,0.911-0.491c0.432-0.282,0.671-0.442,0.906-0.621
				c0.425-0.344,0.654-0.528,0.877-0.737l0.268-0.263c0.238-0.238,0.412-0.412,0.582-0.599l0,0c0.007-0.008,0.012-0.013,0.02-0.02
				c2.385-2.667,4.122-6.587,5.16-11.652c0.091-0.454,0.165-0.928,0.224-1.424h-11.37c-0.174,0-0.344-0.037-0.496-0.101
				c-0.152,0.064-0.319,0.101-0.496,0.101h-3.994c-0.629,0-1.16-0.462-1.245-1.086l-0.034-0.243l-0.034,0.243
				c-0.086,0.624-0.616,1.086-1.245,1.086h-6.627c0.059,0.499,0.13,0.97,0.221,1.434c1.85,9.034,6.064,14.57,11.557,15.18
				c0.341,0.039,0.661,0.059,0.987,0.059C194.95,61.602,195.211,61.595,195.474,61.563L195.474,61.563z"/>
		</g>
		<g>
			<g>
				<path fill="#1A1A1A" d="M175.289,77.815h-2.515c0-8.675,7.553-15.732,16.837-15.732v2.515
					C181.714,64.599,175.289,70.528,175.289,77.815L175.289,77.815z"/>
			</g>
			<g>
				<path fill="#1A1A1A" d="M216.226,77.815h-2.515c0-7.287-6.425-13.217-14.322-13.217v-2.515
					C208.674,62.084,216.226,69.14,216.226,77.815L216.226,77.815z"/>
			</g>
		</g>
		<g>
			<path fill="#1A1A1A" d="M189.196,46.826c-0.813,0-1.474,0.661-1.474,1.474s0.661,1.474,1.474,1.474s1.474-0.661,1.474-1.474
				C190.67,47.486,190.009,46.826,189.196,46.826L189.196,46.826z"/>
			<path fill="#1A1A1A" d="M199.807,46.826c-0.813,0-1.474,0.661-1.474,1.474s0.661,1.474,1.474,1.474
				c0.813,0,1.474-0.661,1.474-1.474C201.281,47.486,200.62,46.826,199.807,46.826L199.807,46.826z"/>
		</g>
	</g>
</g>
</svg>
