<?xml version="1.0" encoding="utf-8"?>
<!-- Generator: Adobe Illustrator 17.1.0, SVG Export Plug-In . SVG Version: 6.00 Build 0)  -->
<!DOCTYPE svg PUBLIC "-//W3C//DTD SVG 1.1//EN" "http://www.w3.org/Graphics/SVG/1.1/DTD/svg11.dtd">
<svg version="1.1" id="Layer_1" xmlns="http://www.w3.org/2000/svg" xmlns:xlink="http://www.w3.org/1999/xlink" x="0px" y="0px"
	 viewBox="0 0 1024 768" enable-background="new 0 0 1024 768" xml:space="preserve">
<g>
	<path fill="#DD3D55" d="M510.6,770.1c-211.7,0-384-172.3-384-384s172.3-384,384-384s384,172.3,384,384S722.3,770.1,510.6,770.1z
		 M510.6,45.6c-187.8,0-340.5,152.8-340.5,340.5s152.8,340.5,340.5,340.5s340.5-152.8,340.5-340.5S698.4,45.6,510.6,45.6z"/>
	<path fill="#DD3D55" d="M713.1,407.8H289c-12,0-21.7-9.7-21.7-21.7s9.7-21.7,21.7-21.7h424.1c12,0,21.7,9.7,21.7,21.7
		S725.1,407.8,713.1,407.8z"/>
	<path fill="#DD3D55" d="M532,577.7c-5.8,0-11.6-2.3-15.9-6.9c-8.2-8.8-7.8-22.5,1-30.7l164.1-153.9L517.3,235.6
		c-8.8-8.1-9.4-21.9-1.3-30.7c8.1-8.8,21.9-9.4,30.7-1.3l181.1,166.5c4.4,4.1,7,9.9,7,15.9c0,6-2.4,11.8-6.9,16L546.8,571.8
		C542.6,575.8,537.3,577.7,532,577.7z"/>
</g>
</svg>
