<?xml version="1.0" encoding="utf-8"?>
<!-- Generator: Adobe Illustrator 17.1.0, SVG Export Plug-In . SVG Version: 6.00 Build 0)  -->
<!DOCTYPE svg PUBLIC "-//W3C//DTD SVG 1.1//EN" "http://www.w3.org/Graphics/SVG/1.1/DTD/svg11.dtd">
<svg version="1.1" id="Layer_1" xmlns="http://www.w3.org/2000/svg" xmlns:xlink="http://www.w3.org/1999/xlink" x="0px" y="0px"
	 viewBox="0 9 416 109" enable-background="new 0 9 416 109" xml:space="preserve">
<rect y="9" fill="#FFF200" width="416" height="109"/>
<g>
	<path fill="#1A1A1A" d="M47.534,55.108h7.95c5.28,0,8.339,2.13,8.339,6.66c0,3.54-1.83,5.55-4.919,6.3l5.22,9.239h-4.02l-4.98-8.76
		h-3.899v8.76h-3.69V55.108H47.534z M55.334,65.277c3.12,0,4.8-0.78,4.8-3.419c0-2.55-1.65-3.33-4.83-3.33h-4.08v6.75L55.334,65.277
		L55.334,65.277z"/>
	<path fill="#1A1A1A" d="M67.706,55.108h14.339v3.48h-10.59v5.52h7.77v3.33h-7.77v6.449h11.19v3.42H67.706V55.108z"/>
	<path fill="#1A1A1A" d="M92.726,55.018h3.689l7.86,22.289h-3.84l-1.8-5.279h-8.43l-1.83,5.279h-3.51L92.726,55.018z M97.525,68.728
		l-3.03-9h-0.06l-3.09,9H97.525z"/>
	<path fill="#1A1A1A" d="M107.149,55.108h6.33c6.96,0,11.52,3.24,11.52,11.009c0,7.92-4.65,11.189-11.52,11.189h-6.33V55.108z
		 M113.809,73.947c5.07,0,7.439-2.22,7.439-7.83c0-5.339-2.4-7.529-7.5-7.529h-2.85v15.359H113.809z"/>
	<path fill="#1A1A1A" d="M142.609,55.018h3.689l7.86,22.289h-3.84l-1.8-5.279h-8.43l-1.83,5.279h-3.51L142.609,55.018z
		 M147.409,68.728l-3.03-9h-0.06l-3.09,9H147.409z"/>
	<path fill="#1A1A1A" d="M157.033,55.108h7.95c5.28,0,8.34,2.13,8.34,6.66c0,3.54-1.83,5.55-4.92,6.3l5.22,9.239h-4.02l-4.98-8.76
		h-3.899v8.76h-3.69L157.033,55.108L157.033,55.108z M164.832,65.277c3.12,0,4.8-0.78,4.8-3.419c0-2.55-1.65-3.33-4.83-3.33h-4.08
		v6.75L164.832,65.277L164.832,65.277z"/>
	<path fill="#1A1A1A" d="M182.541,58.588h-6.84v-3.48h17.43v3.48h-6.84v18.719h-3.75L182.541,58.588L182.541,58.588z"/>
	<path fill="#1A1A1A" d="M196.149,55.108h3.78v22.199h-3.78V55.108z"/>
	<path fill="#1A1A1A" d="M203.763,66.147c0-7.439,4.17-11.459,9.75-11.459c5.16,0,7.62,2.85,8.609,6.9l-3.569,1.02
		c-0.84-2.94-2.13-4.44-5.07-4.44c-3.749,0-5.939,2.91-5.939,7.949c0,5.28,2.25,8.189,6,8.189c2.88,0,4.5-1.439,5.34-4.77
		l3.569,0.811c-1.08,4.409-3.81,7.379-8.939,7.379C207.813,77.727,203.763,73.797,203.763,66.147z"/>
	<path fill="#1A1A1A" d="M225.852,55.108h3.75v18.779h10.229v3.42h-13.979V55.108z"/>
	<path fill="#1A1A1A" d="M242.732,55.108h14.34v3.48h-10.59v5.52h7.77v3.33h-7.77v6.449h11.189v3.42h-14.939V55.108z"/>
</g>
<g>
	<path fill="#1A1A1A" d="M347.497,93.103c-14.888,0-27-12.112-27-27s12.112-27,27-27s27,12.112,27,27S362.386,93.103,347.497,93.103
		z M347.497,42.159c-13.202,0-23.943,10.741-23.943,23.943s10.741,23.943,23.943,23.943c13.203,0,23.943-10.741,23.943-23.943
		S360.699,42.159,347.497,42.159z"/>
	<path fill="#1A1A1A" d="M361.736,67.631h-29.822c-0.845,0-1.528-0.684-1.528-1.528s0.684-1.528,1.528-1.528h29.822
		c0.845,0,1.528,0.684,1.528,1.528S362.58,67.631,361.736,67.631z"/>
	<path fill="#1A1A1A" d="M349.001,79.576c-0.408,0-0.814-0.162-1.116-0.483c-0.577-0.615-0.546-1.583,0.069-2.161l11.536-10.819
		L347.966,55.52c-0.621-0.572-0.662-1.538-0.091-2.16c0.572-0.622,1.537-0.661,2.16-0.091l12.736,11.708
		c0.313,0.288,0.492,0.693,0.494,1.118c0.002,0.425-0.172,0.831-0.483,1.123l-12.736,11.945
		C349.751,79.44,349.376,79.576,349.001,79.576z"/>
</g>
</svg>
